<?xml version="1.0" encoding="utf-8"?>
<!-- Generator: Adobe Illustrator 24.1.1, SVG Export Plug-In . SVG Version: 6.00 Build 0)  -->
<svg version="1.1" id="Calque_1" xmlns="http://www.w3.org/2000/svg" xmlns:xlink="http://www.w3.org/1999/xlink" x="0px" y="0px"
	 viewBox="0 0 283.46 283.46" style="enable-background:new 0 0 283.46 283.46;" xml:space="preserve">
<path class="st0" d="M256.05,176.91h-6.63c3.62-11.08,5.59-22.9,5.59-35.17c0-62.53-50.86-113.39-113.39-113.39
	S28.23,79.21,28.23,141.73S79.1,255.12,141.62,255.12c0.19,0,0.37-0.01,0.56-0.01v3.82c0,3.99,3.26,7.25,7.25,7.25h106.62
	c3.99,0,7.25-3.26,7.25-7.25v-74.77C263.3,180.17,260.04,176.91,256.05,176.91z M105.43,50.46c-8.47,11.71-15.2,27.44-19.4,45.92
	h-31.5C65.4,75.6,83.47,59.2,105.43,50.46z M43.35,141.73c0-10.55,1.72-20.7,4.81-30.24h35.15c-1.37,9.61-2.16,19.71-2.16,30.24
	s0.79,20.63,2.16,30.24H48.16C45.07,162.43,43.35,152.29,43.35,141.73z M54.53,187.09h31.5c4.19,18.48,10.93,34.21,19.4,45.92
	C83.47,224.27,65.4,207.87,54.53,187.09z M134.06,238.42c-13.11-5.26-25.7-23.81-32.53-51.33h32.53V238.42z M134.06,171.97H98.49
	c-1.42-9.35-2.22-19.46-2.22-30.24c0-10.77,0.8-20.88,2.22-30.24h35.57V171.97z M134.06,96.38h-32.53
	c6.83-27.52,19.42-46.07,32.53-51.33V96.38z M149.18,45.05c13.11,5.26,25.7,23.81,32.53,51.33h-32.53V45.05z M149.18,171.97V111.5
	h35.57c1.42,9.35,2.22,19.46,2.22,30.24c0,10.77-0.8,20.88-2.22,30.24H149.18z M191.61,214.25v9.35h-16.44v12.16h20.73v9.66h-32.57
	v-51.67h33.12l-1.09,9.66h-20.18v10.83H191.61z M177.81,50.46c21.96,8.74,40.03,25.14,50.9,45.92h-31.5
	C193.01,77.9,186.28,62.17,177.81,50.46z M199.93,111.5h35.15c3.09,9.54,4.81,19.68,4.81,30.24s-1.72,20.7-4.81,30.24h-35.14
	c1.37-9.61,2.16-19.71,2.16-30.24S201.3,121.11,199.93,111.5z M243.2,245.42h-12.86l-13.25-27.27c-1.87-3.82-3.74-8.49-5.3-13.17
	h-0.16c0.39,4.6,0.7,10.6,0.7,14.65v25.79h-9.74v-51.67h15.51l9.43,19.56c2.18,4.44,4.83,10.91,6.39,15.66h0.16
	c-0.39-5.38-0.62-11.92-0.62-16.91v-18.31h9.74V245.42z"/>
</svg>
