<?xml version="1.0" encoding="utf-8"?>
<!-- Generator: Adobe Illustrator 24.1.1, SVG Export Plug-In . SVG Version: 6.00 Build 0)  -->
<svg version="1.1" id="Calque_1" xmlns="http://www.w3.org/2000/svg" xmlns:xlink="http://www.w3.org/1999/xlink" x="0px" y="0px"
	 viewBox="0 0 70.9 70.9" style="enable-background:new 0 0 70.9 70.9;" xml:space="preserve">
<style type="text/css">
	.st0{fill:#A38E40;}
</style>
<path class="st0" d="M38.4,11c11.8,1.5,21,11.9,21,24.5c0,4.6-1.2,8.8-3.3,12.5h-1h-5.4c1.2-1.5,2.2-3.2,3-5c1-2.4,1.5-4.9,1.5-7.5
	c0-2.6-0.5-5.1-1.5-7.5c-1-2.3-2.3-4.4-4-6.1c-1.7-1.8-3.7-3.2-6-4.1c-1.4-0.6-2.8-1-4.3-1.3V11z M20.1,54.5v-7.8
	c-0.8-1.2-1.5-2.4-2-3.7c-1-2.4-1.5-4.9-1.5-7.5c0-2.6,0.5-5.1,1.5-7.5c0.5-1.3,1.2-2.6,2-3.7v-7.8c-5.3,4.5-8.7,11.4-8.7,19
	C11.4,43.1,14.8,49.9,20.1,54.5z M34.9,8.8H21.1l2.6,5.5v42.3l-2.6,5.5h31.2l2.8-10.4H34.9V8.8z"/>
</svg>
