<?xml version="1.0" encoding="utf-8"?>
<!-- Generator: $$$/GeneralStr/196=Adobe Illustrator 27.6.0, SVG Export Plug-In . SVG Version: 6.00 Build 0)  -->
<svg version="1.1" id="Calque_1" xmlns="http://www.w3.org/2000/svg" xmlns:xlink="http://www.w3.org/1999/xlink" x="0px" y="0px"
	 viewBox="0 0 141.7 141.7" style="enable-background:new 0 0 141.7 141.7;" xml:space="preserve">
<g>
	<g>
		<path d="M88.6,109.5l25.6,25.6c5.7,5.7,14.8,5.7,20.5,0c5.7-5.7,5.7-14.8,0-20.5l0,0l-25.3-25.5c16.2-27.1,7.3-62.3-19.8-78.6
			S27.1,3.2,10.9,30.5s-7.3,62.3,19.8,78.5C48.6,119.6,70.6,119.9,88.6,109.5z M16.6,59.8c0-23.9,19.5-43.5,43.5-43.3
			c23.9,0,43.5,19.5,43.3,43.5c-0.1,23.9-19.4,43.3-43.5,43.3c-4.2,0-8.3-0.6-12.3-1.8C29.2,95.9,16.6,79,16.6,59.8z"/>
	</g>
</g>
</svg>
